<svg width="32" height="32" viewBox="0 0 32 32" fill="none" xmlns="http://www.w3.org/2000/svg">
<g clip-path="url(#clip0_1054_3835)">
<path fill-rule="evenodd" clip-rule="evenodd" d="M23.5685 18.6219L27.4149 18.3371H27.4133C27.8385 18.2745 28.202 18.6043 28.1346 19.0175L27.3491 24.0898C27.2183 24.8167 26.6984 25.0358 25.2133 25.0358C24.496 25.0358 23.7867 24.9628 23.1024 24.824C22.8359 24.7693 22.5775 24.6991 22.3195 24.6289L22.2872 24.6202C22.2086 24.5969 22.1315 24.5712 22.0561 24.5455C21.9999 24.5263 21.9446 24.5078 21.8884 24.4902C21.6766 24.4164 21.4648 24.3353 21.261 24.2535C20.8454 24.0826 20.4458 23.8868 20.0631 23.667C19.8673 23.5531 19.6796 23.4383 19.5007 23.3164C19.126 23.0717 18.7754 22.8029 18.4416 22.5092C18.2707 22.3624 18.1078 22.2075 17.953 22.0527C17.3167 21.4253 16.7631 20.716 16.3066 19.9257L16.1598 19.6649L15.4673 18.459L11.4773 11.5116L14.0167 7.09397C14.6361 6.00761 16.3178 6.01082 16.9509 7.09879L19.4774 11.4916L23.5685 18.6219ZM26.6205 19.7653L18.2739 20.3903C19.9508 22.4563 22.5263 23.683 25.2069 23.683H26.0132L26.6205 19.7653ZM6.51152 25.036C5.25667 25.036 4.47439 23.6832 5.10182 22.5913L5.10262 22.5905L10.5938 13.0354L14.5878 20.0077L11.6866 25.036H6.51152Z" fill="#205223"/>
</g>
<defs>
<clipPath id="clip0_1054_3835">
<rect width="32" height="32" rx="8" fill="white"/>
</clipPath>
</defs>
</svg>
