<svg width="145" height="70" viewBox="0 0 145 70" fill="none" xmlns="http://www.w3.org/2000/svg">
<path d="M5.03574 69.2685C3.66909 69.2685 2.32785 68.7122 1.35456 67.6696C-0.105664 66.106 -0.417579 63.7897 0.576506 61.8951L30.6515 4.57149C31.329 3.27935 32.5339 2.34534 33.9543 2.01032C35.3741 1.6753 36.8696 1.97335 38.0531 2.8265L73.7039 28.5225L137.562 0.426481C139.515 -0.432441 141.796 0.0319661 143.257 1.58577C144.718 3.13957 145.041 5.44543 144.064 7.34118L115.056 63.6141C114.385 64.9167 113.179 65.8617 111.754 66.203C110.329 66.5444 108.826 66.2481 107.637 65.3915L72.4874 40.057L7.06145 68.8422C6.40874 69.1293 5.71906 69.2685 5.03574 69.2685ZM36.8719 14.3864L16.1769 53.8321L63.011 33.2267L36.8719 14.3864ZM83.1803 35.3523L108.784 53.8067L128.597 15.3707L83.1803 35.3529V35.3523Z" fill="url(#paint0_linear_8041_2289)"/>
<defs>
<linearGradient id="paint0_linear_8041_2289" x1="2.8693e-06" y1="69.3763" x2="70.7104" y2="-56.1425" gradientUnits="userSpaceOnUse">
<stop stop-color="#F47C20"/>
<stop offset="1" stop-color="#FDA600"/>
</linearGradient>
</defs>
</svg>
