<svg width="73" height="73" viewBox="0 0 73 73" fill="none" xmlns="http://www.w3.org/2000/svg">
<circle cx="36.1206" cy="36.1206" r="36.1206" fill="#BDFF6A"/>
<path fill-rule="evenodd" clip-rule="evenodd" d="M35.9743 12.8689C38.0742 12.8689 39.7765 14.5712 39.7765 16.671V31.8797C39.7765 33.9796 38.0742 35.6819 35.9743 35.6819C33.8744 35.6819 32.1722 33.9796 32.1722 31.8797V16.671C32.1722 14.5712 33.8744 12.8689 35.9743 12.8689Z" fill="black"/>
<path fill-rule="evenodd" clip-rule="evenodd" d="M25.1528 20.7657C27.2527 20.7657 28.9549 22.468 28.9549 24.5678V39.7765C28.9549 41.8764 27.2527 43.5787 25.1528 43.5787C23.0529 43.5787 21.3506 41.8764 21.3506 39.7765V24.5678C21.3506 22.468 23.0529 20.7657 25.1528 20.7657Z" fill="black"/>
<path fill-rule="evenodd" clip-rule="evenodd" d="M14.3312 28.6625C16.4311 28.6625 18.1334 30.3648 18.1334 32.4647V47.6733C18.1334 49.7732 16.4311 51.4755 14.3312 51.4755C12.2313 51.4755 10.5291 49.7732 10.5291 47.6733L10.5291 32.4647C10.5291 30.3648 12.2313 28.6625 14.3312 28.6625Z" fill="black"/>
<path fill-rule="evenodd" clip-rule="evenodd" d="M46.7959 20.7657C44.696 20.7657 42.9937 22.468 42.9937 24.5678V39.7765C42.9937 41.8764 44.696 43.5787 46.7959 43.5787C48.8958 43.5787 50.598 41.8764 50.598 39.7765V24.5678C50.598 22.468 48.8958 20.7657 46.7959 20.7657Z" fill="black"/>
<path fill-rule="evenodd" clip-rule="evenodd" d="M57.6174 28.6625C55.5176 28.6625 53.8153 30.3648 53.8153 32.4647V47.6733C53.8153 49.7732 55.5176 51.4755 57.6174 51.4755C59.7173 51.4755 61.4196 49.7732 61.4196 47.6733V32.4647C61.4196 30.3648 59.7173 28.6625 57.6174 28.6625Z" fill="black"/>
</svg>
