<svg width="29" height="20" viewBox="0 0 29 20" fill="none" xmlns="http://www.w3.org/2000/svg">
<path fill-rule="evenodd" clip-rule="evenodd" d="M19.8415 2.65677C21.432 3.82837 22.6116 5.47304 23.2117 7.35571C24.6667 7.5457 26.0038 8.25621 26.9759 9.35594C27.948 10.4557 28.4894 11.8703 28.5 13.3383C28.5 15.8748 26.895 17.9773 24.3111 18.8244L24.1951 18.8615V16.991C25.8025 16.3134 26.7465 14.9744 26.7465 13.3383C26.7425 12.2158 26.2999 11.1393 25.5133 10.3389C24.7267 9.53841 23.6585 9.07744 22.5367 9.05442H21.8409L21.6739 8.39072C21.2756 6.74563 20.339 5.28102 19.013 4.22978C17.687 3.17855 16.0478 2.60104 14.3561 2.5891C12.9363 2.58228 11.5441 2.98113 10.3431 3.73878C9.14214 4.49642 8.18229 5.58136 7.57641 6.86605L7.36302 7.30466L6.87594 7.35571C5.80298 7.47055 4.79282 7.91842 3.98705 8.63655C3.18129 9.35468 2.6203 10.3071 2.38272 11.3602C2.14514 12.4134 2.24288 13.5145 2.66224 14.5093C3.08159 15.5041 3.80155 16.3427 4.72119 16.9075V18.88H4.70959L4.53563 18.8011C3.19505 18.1845 2.08614 17.1559 1.3703 15.8651C0.654466 14.5742 0.369066 13.0885 0.555641 11.6241C0.742216 10.1597 1.39103 8.79311 2.40764 7.72322C3.42426 6.65332 4.75562 5.93597 6.20794 5.67556C6.99816 4.20377 8.17425 2.97522 9.60985 2.12191C11.0455 1.2686 12.6863 0.822785 14.3561 0.832366C16.3311 0.846606 18.2511 1.48516 19.8415 2.65677ZM11.3408 19.0379L10.9558 18.6526C10.6967 18.3925 10.5508 18.0405 10.5499 17.6733V11.8717C10.5505 11.8512 10.5591 11.8317 10.5738 11.8174C10.5885 11.8031 10.6082 11.7951 10.6288 11.7951H11.2875C11.3024 11.7948 11.3169 11.7902 11.3292 11.7817C11.3415 11.7733 11.3511 11.7614 11.3568 11.7476C11.3624 11.7338 11.3639 11.7187 11.3611 11.704C11.3583 11.6894 11.3512 11.6759 11.3408 11.6652L8.76394 9.08459C8.75682 9.07736 8.74834 9.07162 8.73898 9.06771C8.72962 9.06379 8.71958 9.06177 8.70944 9.06177C8.69929 9.06177 8.68925 9.06379 8.67989 9.06771C8.67054 9.07162 8.66205 9.07736 8.65493 9.08459L6.07572 11.6652C6.06519 11.676 6.0581 11.6897 6.05534 11.7046C6.05259 11.7194 6.0543 11.7348 6.06025 11.7487C6.06621 11.7626 6.07614 11.7744 6.0888 11.7827C6.10146 11.7909 6.11628 11.7953 6.13139 11.7951H6.78083C6.80113 11.7951 6.8206 11.8032 6.83495 11.8175C6.84931 11.8319 6.85737 11.8514 6.85737 11.8717V17.7754C6.85737 18.1447 7.00399 18.4989 7.26498 18.76C7.52596 19.0211 7.87994 19.1678 8.24903 19.1678H11.2875C11.3024 19.1675 11.3169 19.1629 11.3292 19.1544C11.3415 19.146 11.3511 19.1341 11.3568 19.1203C11.3624 19.1065 11.3639 19.0914 11.3611 19.0767C11.3583 19.0621 11.3512 19.0486 11.3408 19.0379ZM16.6546 18.6526L17.042 19.0378C17.0525 19.0487 17.0596 19.0624 17.0624 19.0773C17.0651 19.0921 17.0634 19.1075 17.0575 19.1214C17.0515 19.1353 17.0416 19.1471 17.0289 19.1554C17.0163 19.1636 17.0014 19.168 16.9863 19.1678H13.9548C13.5857 19.1678 13.2318 19.0211 12.9708 18.76C12.7098 18.4989 12.5632 18.1447 12.5632 17.7754V13.3639C12.5632 13.3433 12.5552 13.3236 12.5409 13.3089C12.5266 13.2941 12.5071 13.2856 12.4866 13.285H11.8302C11.8153 13.2847 11.8008 13.28 11.7885 13.2716C11.7762 13.2631 11.7666 13.2513 11.761 13.2375C11.7553 13.2237 11.7538 13.2085 11.7566 13.1939C11.7594 13.1792 11.7665 13.1657 11.7769 13.155L14.3538 10.5791C14.3609 10.5719 14.3694 10.5661 14.3787 10.5622C14.3881 10.5583 14.3981 10.5563 14.4083 10.5563C14.4184 10.5563 14.4285 10.5583 14.4378 10.5622C14.4472 10.5661 14.4557 10.5719 14.4628 10.5791L17.042 13.1504C17.0525 13.1612 17.0596 13.1749 17.0624 13.1898C17.0651 13.2047 17.0634 13.22 17.0575 13.2339C17.0515 13.2478 17.0416 13.2596 17.0289 13.2679C17.0163 13.2762 17.0014 13.2805 16.9863 13.2803H16.3276C16.3071 13.2809 16.2876 13.2895 16.2733 13.3042C16.2591 13.319 16.2511 13.3387 16.2511 13.3592V17.6733C16.2514 18.0402 16.3964 18.3921 16.6546 18.6526ZM22.7408 19.0379L22.3558 18.6526C22.0967 18.3925 21.9509 18.0405 21.9499 17.6733V14.8444C21.9499 14.8241 21.958 14.8047 21.9723 14.7903C21.9867 14.7759 22.0062 14.7679 22.0265 14.7679H22.6875C22.7029 14.768 22.718 14.7635 22.7308 14.755C22.7436 14.7464 22.7535 14.7342 22.7593 14.7199C22.7651 14.7057 22.7664 14.69 22.7631 14.6749C22.7598 14.6599 22.752 14.6462 22.7408 14.6356L20.1616 12.0573C20.1547 12.0502 20.1464 12.0445 20.1373 12.0406C20.1281 12.0367 20.1182 12.0347 20.1083 12.0347C20.0983 12.0347 20.0885 12.0367 20.0793 12.0406C20.0702 12.0445 20.0619 12.0502 20.0549 12.0573L17.4757 14.6356C17.4645 14.6462 17.4568 14.6599 17.4535 14.6749C17.4502 14.69 17.4515 14.7057 17.4573 14.7199C17.463 14.7342 17.473 14.7464 17.4858 14.755C17.4986 14.7635 17.5137 14.768 17.5291 14.7679H18.1785C18.1988 14.7679 18.2183 14.7759 18.2326 14.7903C18.247 14.8047 18.2551 14.8241 18.2551 14.8444V17.7754C18.2551 18.1447 18.4017 18.4989 18.6627 18.76C18.9237 19.0211 19.2776 19.1678 19.6467 19.1678H22.6875C22.7024 19.1675 22.7169 19.1629 22.7292 19.1544C22.7415 19.146 22.7511 19.1341 22.7568 19.1203C22.7624 19.1065 22.764 19.0914 22.7611 19.0767C22.7583 19.0621 22.7512 19.0486 22.7408 19.0379Z" fill="#3448C5"/>
</svg>
