<svg viewBox="0 0 68 79" fill="none" xmlns="http://www.w3.org/2000/svg">
  <path fill="#000" d="M23.3929 7.23975L0.893555 20.2289V30.3052L23.3929 17.3152L45.8914 30.3052V20.2289L23.3929 7.23975Z" />
  <path fill="#000" d="M45.5013 72.1493L23.002 59.1601V49.0854L45.5013 62.0746L67.9998 49.0854V59.1601L45.5013 72.1493Z" />
  <path fill="#000" d="M0.893555 33.0115L23.3929 20.0215L32.1175 25.0592L9.61896 38.0492V64.0292L0.893555 58.9915V33.0115Z" />
  <path fill="#000" d="M56.9611 13.7748L34.4617 0.785645L25.7363 5.82337L48.2348 18.8126V44.7926L56.9611 39.7549V13.7748Z" />
  <path fill="#000" d="M12.0098 65.5281L12.0106 39.549L20.736 34.5112V60.4913L43.2345 73.4804L34.5091 78.519L12.0098 65.5281Z" />
  <path fill="#000" d="M67.9998 46.3786V20.3986L59.2744 15.3608V41.34L36.7759 54.3309L45.5013 59.3694L67.9998 46.3786Z" />
</svg> 