<svg viewBox="0 0 60 60" fill="#0BB499" xmlns="http://www.w3.org/2000/svg">
<path d="M13.6154 52.6718C12.389 52.6687 11.1866 52.3283 10.1369 51.6871C9.08722 51.0459 8.22981 50.128 7.65652 49.0318C7.08322 47.9356 6.81564 46.7024 6.88243 45.4641C6.94922 44.2259 7.34787 43.0294 8.03568 42.0028L33.1308 4.75593C34.1722 3.34127 35.7137 2.38797 37.4335 2.09504C39.1534 1.80211 40.9186 2.19219 42.3609 3.18384C43.8031 4.17549 44.8108 5.69208 45.1736 7.41703C45.5364 9.14198 45.2263 10.942 44.3081 12.4413L19.2129 49.6881C18.5917 50.6097 17.7567 51.3635 16.781 51.8836C15.8052 52.4038 14.7184 52.6744 13.6154 52.6718Z" />
<path d="M44.3295 17.0422L51.7048 16.4831C52.0797 16.4548 52.4554 16.4581 52.8281 16.4926C53.2167 16.5272 53.6042 16.596 53.9861 16.6995C55.7192 17.1692 57.1968 18.3158 58.0938 19.8871C58.9909 21.4584 59.2338 23.3256 58.7693 25.078C58.3048 26.8305 57.1709 28.3245 55.617 29.2316L23.4864 47.9779L44.3295 17.0422Z" />
<path d="M32.0811 60C30.6331 60.0024 29.2224 59.5352 28.0563 58.667C26.8903 57.7987 26.0303 56.5753 25.6028 55.1763L24.1999 50.5716L31.5632 46.2755L37.8433 48.7708L38.5684 51.1438C39.0963 52.8775 38.9219 54.7522 38.0836 56.356C37.2453 57.9598 35.8116 59.1615 34.0975 59.6971C33.444 59.8989 32.7644 60.001 32.0811 60Z" />
<path d="M49.4289 35.852L34.419 44.6094L46.7804 49.521C47.569 49.8278 48.4078 49.9812 49.2528 49.973C50.8279 49.9722 52.3533 49.411 53.566 48.3946C54.7787 47.3782 55.6026 45.9658 55.8956 44.4009C56.1886 42.836 55.9323 41.2168 55.171 39.8225C54.4096 38.4282 53.191 37.3463 51.7252 36.7633L49.4289 35.852Z" />
<path d="M20.5155 18.8473L10.7738 33.3061L8.28343 33.4949C8.11353 33.5084 7.94364 33.5129 7.77374 33.5129C6.02147 33.5154 4.33664 32.8302 3.07402 31.6016C1.81141 30.373 1.06954 28.6969 1.00465 26.9263C0.939748 25.1557 1.55688 23.4287 2.7261 22.109C3.89531 20.7893 5.52536 19.9798 7.273 19.8511L20.5155 18.8473Z" />
<path d="M23.9081 5.45219L27.1559 8.99151L22.208 16.3352L15.8715 16.8295L13.9782 14.7605C12.7575 13.429 12.1098 11.6617 12.1777 9.84741C12.2457 8.03309 13.0236 6.32036 14.3404 5.086C15.6571 3.85164 17.4049 3.19677 19.1992 3.26544C20.9935 3.33411 22.6873 4.12071 23.9081 5.45219Z" />
</svg>
