<svg width="32" height="32" viewBox="0 0 32 32" fill="none" xmlns="http://www.w3.org/2000/svg">
<g clip-path="url(#clip0_1048_6741)">
<path fill-rule="evenodd" clip-rule="evenodd" d="M21.7993 0.655565C20.8134 -0.224309 19.3344 -0.21388 18.3513 0.659087C17.561 1.36097 16.5485 1.74745 15.4999 1.74745C14.4515 1.74745 13.439 1.36091 12.649 0.659108C11.6652 -0.214572 10.1858 -0.223633 9.20014 0.656131L9.19519 0.660551L9.1903 0.665037C6.20295 3.40372 5.86281 6.61755 5.95314 8.50473L4.73822 9.42438C3.64874 10.235 3 11.5372 3 12.913V14.571C3 19.8956 5.04061 25.1612 8.4374 28.2976C11.0181 30.6802 13.288 31.996 15.4995 32H15.5029C17.7124 31.996 19.9823 30.68 22.5626 28.2976C25.9597 25.1612 28 19.8956 28 14.571V12.913C28 11.5385 27.3526 10.2358 26.2669 9.42823L25.0488 8.50623C25.1345 6.55434 24.7273 3.32393 21.807 0.662516L21.8032 0.65902L21.7993 0.655565Z" fill="white"/>
<path fill-rule="evenodd" clip-rule="evenodd" d="M14.9304 7.31131C14.798 7.17263 14.622 6.98811 14.3637 6.74687C12.617 5.11561 10.3085 4.66454 8.45903 5.94352C8.84263 4.57531 9.605 3.33154 10.6773 2.37455C10.8168 2.25012 11.031 2.25312 11.1758 2.38165C12.3785 3.44587 13.8757 4.03229 15.4997 4.03229C17.1238 4.03229 18.625 3.44587 19.8237 2.38165C19.9682 2.25312 20.1826 2.25012 20.3221 2.37455C21.3944 3.33154 22.1568 4.57531 22.5404 5.94352C20.691 4.66454 18.3824 5.11561 16.6358 6.74687C16.3775 6.98811 16.2014 7.17263 16.0691 7.31131C15.8076 7.58535 15.7169 7.68039 15.4997 7.68039C15.2825 7.68039 15.1918 7.58535 14.9304 7.31131ZM9.63734 14.3868C10.9934 15.6846 12.7179 16.48 14.5828 16.6778C15.3642 18.0343 15.7944 19.7417 15.7944 21.5086C15.7944 24.233 14.6859 26.8371 12.7473 28.7066C11.9103 28.1985 10.9932 27.4835 9.98613 26.5536C8.31417 25.0099 7.01026 22.8192 6.20801 20.3308L9.63734 14.3868Z" fill="#32466E"/>
<path d="M10.3191 9.7362C10.3191 9.00707 10.772 8.41384 11.3288 8.41384C11.8856 8.41384 12.3383 9.00707 12.3383 9.7362C12.3383 10.4656 11.8856 11.0586 11.3288 11.0586C10.772 11.0586 10.3191 10.4656 10.3191 9.7362Z" fill="#081736"/>
<path d="M15.4965 10.6061C15.9754 10.6061 16.3193 10.9584 16.3528 11.4826C16.3579 11.5606 16.3603 11.6406 16.3603 11.7203C16.3603 12.5553 16.1954 13.2361 15.8089 13.9969L15.7941 14.0261C15.7382 14.1391 15.6536 14.3093 15.4965 14.3093C15.3401 14.3093 15.2555 14.1398 15.1993 14.0271L15.1988 14.0261L15.1843 13.9969C14.7975 13.2361 14.6329 12.5553 14.6329 11.7203C14.6329 11.6406 14.6353 11.5606 14.6404 11.4826C14.6736 10.9584 15.0178 10.6061 15.4965 10.6061Z" fill="#081736"/>
<path d="M20.9704 9.52984C20.8373 9.09842 20.4465 8.76578 19.9976 8.70247C19.3707 8.61406 18.7336 8.99745 18.2927 9.7274C18.1602 9.94598 18.2204 10.1313 18.3211 10.2314C18.3899 10.3002 18.4817 10.3378 18.5858 10.3403C18.5882 10.3406 18.5904 10.3406 18.5925 10.3406C18.7158 10.3406 18.83 10.2579 18.914 10.1971L18.9148 10.1965L18.9528 10.1695C19.4073 9.85565 19.7901 9.83301 20.1946 10.0952C20.4184 10.2404 20.6497 10.2546 20.8132 10.1329C20.9824 10.0066 21.0442 9.7697 20.9704 9.52984Z" fill="#081736"/>
<path fill-rule="evenodd" clip-rule="evenodd" d="M24.0213 8.98647L25.6796 10.2417C26.5105 10.8581 27.0095 11.8585 27.0095 12.9137V14.5717C27.0095 19.6658 25.0508 24.639 21.8975 27.5503C19.3582 29.8949 17.3254 30.9883 15.5006 30.9916C13.6736 30.9883 11.6408 29.8949 9.10127 27.5503C5.94819 24.639 3.98926 19.6658 3.98926 14.5717V12.9137C3.98926 11.8585 4.48849 10.8581 5.32421 10.2379L6.98065 8.98401C6.81977 7.39859 6.86314 4.15571 9.85159 1.41602C10.4603 0.872718 11.3833 0.874628 11.9982 1.42066C12.9685 2.28268 14.2119 2.75721 15.4992 2.75721C16.7868 2.75721 18.0302 2.28268 19.0008 1.42066C19.6155 0.874901 20.5382 0.872445 21.1466 1.41547C24.0516 4.06293 24.1905 7.32355 24.0213 8.98647ZM15.5006 29.6482C16.4455 29.6469 17.5379 29.2174 18.803 28.3502C20.9804 26.5265 22.6079 22.8487 22.6079 19.7089C22.6079 17.8826 22.1229 16.1209 21.2028 14.5758C19.7841 15.8474 17.9895 16.5913 16.0566 16.7105C16.7218 18.1317 17.0829 19.8006 17.0829 21.5099C17.0829 24.4349 15.9551 27.2365 13.9683 29.3241C14.5174 29.5388 15.0276 29.6477 15.5006 29.6482ZM9.9857 26.5549C10.993 27.4846 11.9098 28.1995 12.7472 28.7079C14.6857 26.8384 15.794 24.2343 15.794 21.5099C15.794 19.7428 15.3641 18.0354 14.5827 16.6792C12.7177 16.4813 10.993 15.6859 9.63718 14.3881L6.20784 20.3319C7.00983 22.8206 8.314 25.0112 9.9857 26.5549ZM16.6292 8.6422C16.2237 9.14497 15.9062 9.5385 15.4992 9.5385C15.0923 9.5385 14.7751 9.14511 14.3697 8.64247C14.2025 8.43516 14.0203 8.20927 13.8107 7.98473C12.5191 6.58159 10.868 6.2304 9.66742 6.71721C8.64192 7.13308 8.14964 8.09307 8.28589 9.31692C8.53966 10.8412 9.23029 12.2272 10.2965 13.3089C11.659 14.6915 13.4878 15.4529 15.4992 15.4529C17.5109 15.4529 19.3397 14.6915 20.7023 13.3089C21.7682 12.2272 22.4588 10.8412 22.7129 9.31692C22.8488 8.09307 22.3568 7.13308 21.3311 6.71721C20.131 6.2304 18.4799 6.58159 17.1881 7.98473C16.9785 8.20917 16.7964 8.43496 16.6292 8.6422ZM19.8232 2.38282C18.6247 3.44705 17.1233 4.03346 15.4992 4.03346C13.8752 4.03346 12.3783 3.44705 11.1756 2.38282C11.0308 2.2543 10.8166 2.2513 10.6771 2.37573C9.60478 3.33271 8.84241 4.57649 8.45882 5.9447C10.3083 4.66572 12.6165 5.11706 14.3634 6.74805C14.6214 6.98903 14.7973 7.17341 14.9296 7.31204C15.1914 7.58642 15.2822 7.68157 15.4995 7.68157C15.7167 7.68157 15.8074 7.58652 16.0689 7.31248C16.2012 7.1738 16.3772 6.98929 16.6356 6.74805C18.3822 5.11706 20.6905 4.66572 22.5402 5.9447C22.1566 4.57649 21.394 3.33271 20.3219 2.37573C20.1824 2.2513 19.968 2.2543 19.8232 2.38282Z" fill="#081736"/>
</g>
<defs>
<clipPath id="clip0_1048_6741">
<rect width="25" height="32" fill="white" transform="translate(3)"/>
</clipPath>
</defs>
</svg>
