<svg width="22" height="22" viewBox="0 0 122 122" fill="none" xmlns="http://www.w3.org/2000/svg" preserveAspectRatio="xMidYMid meet">
<path fill-rule="evenodd" clip-rule="evenodd" d="M1.26511 98.9616C0.646355 100.444 0.32623 102.034 0.323067 103.641C0.323067 110.3 5.94972 116.376 15.2505 121.03C16.0995 121.443 17.0255 121.673 17.9688 121.706C18.9122 121.74 19.8521 121.575 20.7281 121.223C21.604 120.871 22.3967 120.34 23.0551 119.663C23.7136 118.986 24.2232 118.179 24.5512 117.293L34.9142 92.354C36.7291 88.0136 38.1618 83.5229 39.1962 78.933C19.9951 82.1556 5.52159 89.5172 1.51351 98.5245L1.35074 98.9102L1.26511 98.9616ZM39.1631 43.0715C38.1291 38.4816 36.696 33.9908 34.8812 29.6505L24.5184 4.70267C24.1885 3.81734 23.6773 3.01093 23.0177 2.33504C22.358 1.65916 21.5645 1.12863 20.6879 0.777534C19.8114 0.426437 18.8713 0.262856 17.9277 0.296585C16.9842 0.33065 16.0582 0.561676 15.2091 0.974831C5.91687 5.61971 0.290131 11.7047 0.290131 18.3634C0.293966 19.9702 0.614064 21.5601 1.23218 23.0431V23.0943L1.39495 23.4802C5.48867 32.4873 19.9622 39.8404 39.1631 43.0715ZM106.775 0.974831C116.075 5.61971 121.702 11.7047 121.702 18.3634C121.678 19.9732 121.34 21.5624 120.709 23.0431L120.572 23.3601C116.598 32.4272 102.09 39.8232 82.8291 43.0715C83.8632 38.4816 85.2959 33.9908 87.1111 29.6505L97.4737 4.70267C97.8015 3.81701 98.3111 3.00958 98.9698 2.33302C99.6285 1.65646 100.421 1.12526 101.298 0.774162C102.174 0.423065 103.114 0.259483 104.058 0.293884C105.001 0.328285 105.926 0.560326 106.775 0.974831ZM82.8881 78.933C83.903 83.5192 85.3185 88.0074 87.1188 92.3454L97.4818 117.293C97.8096 118.179 98.3195 118.986 98.9779 119.663C99.6362 120.34 100.429 120.871 101.305 121.223C102.181 121.575 103.121 121.74 104.064 121.706C105.008 121.673 105.933 121.443 106.782 121.03C116.083 116.376 121.71 110.3 121.71 103.641C121.702 102.035 121.383 100.445 120.768 98.9616L120.631 98.6445C116.674 89.5772 102.115 82.1725 82.8881 78.933ZM82.2342 48.3798C95.8686 46.2803 107.199 42.1922 115.018 36.8529L112.8 42.175C107.832 54.2233 107.832 67.7498 112.8 79.7981L115.001 85.103C107.173 79.7637 95.8426 75.7188 82.2257 73.5934L81.8659 73.5418C74.9609 72.4962 67.9869 71.9778 61.0034 71.9907C54.0371 71.9802 47.0802 72.4989 40.1922 73.5418L39.8326 73.5934C26.2069 75.6844 14.8764 79.7725 7.04871 85.1118L9.25823 79.7981C14.2259 67.7498 14.2259 54.2233 9.25823 42.175L7.04871 36.8529C14.8422 42.2178 26.1726 46.2803 39.7982 48.3798L40.1581 48.4314C53.9875 50.488 68.0449 50.488 81.8746 48.4314L82.2342 48.3798Z" fill="#594CE9"/>
</svg>
