<svg width="40" height="32" viewBox="0 0 40 32" fill="none" xmlns="http://www.w3.org/2000/svg">
<g clip-path="url(#clip0_1094_15637)">
<path fill-rule="evenodd" clip-rule="evenodd" d="M30.0109 31.8917C31.9853 31.8917 33.5144 31.38 34.5979 30.3567C35.6815 29.3333 36.2233 27.8585 36.2233 25.9321V19.7198C36.2233 18.6723 36.4761 17.9078 36.9817 17.4262C37.4874 16.9447 38.2278 16.7039 39.203 16.7039H39.7087V14.3201H39.203C38.2278 14.3201 37.4874 14.0793 36.9817 13.5977C36.4761 13.1041 36.2233 12.3456 36.2233 11.3222V6.06698C36.2233 4.14066 35.6815 2.66582 34.5979 1.64246C33.5144 0.619101 31.9853 0.107422 30.0109 0.107422C29.5293 0.107422 29.0718 0.125481 28.6384 0.1616C28.1929 0.197719 27.8076 0.245877 27.4826 0.306074V2.56348H29.7219C30.8657 2.56348 31.7566 2.84641 32.3947 3.41227C33.0328 3.97812 33.3518 4.85701 33.3518 6.04892V11.1597C33.3518 12.5201 33.6468 13.5736 34.2367 14.3201C34.6761 14.8759 35.3157 15.2749 36.1556 15.517C35.3157 15.7524 34.6761 16.148 34.2367 16.7039C33.6468 17.4503 33.3518 18.5098 33.3518 19.8823V25.9502C33.3518 27.1301 33.0328 28.0029 32.3947 28.5688C31.7566 29.1467 30.8657 29.4356 29.7219 29.4356H27.4826V31.6931C27.8076 31.7412 28.1929 31.7833 28.6384 31.8195C29.0718 31.8676 29.5293 31.8917 30.0109 31.8917ZM9.69782 31.8917C7.72334 31.8917 6.19432 31.38 5.11077 30.3567C4.02721 29.3333 3.48544 27.8585 3.48544 25.9322V19.7198C3.48544 18.6723 3.23261 17.9078 2.72695 17.4262C2.22129 16.9447 1.48086 16.7039 0.505659 16.7039H0V14.3201H0.505659C1.48086 14.3201 2.22129 14.0793 2.72695 13.5977C3.23261 13.1041 3.48544 12.3456 3.48544 11.3222V6.06698C3.48544 4.14066 4.02721 2.66582 5.11077 1.64246C6.19432 0.619107 7.72334 0.107428 9.69782 0.107428C10.1794 0.107428 10.6369 0.125487 11.0703 0.161606C11.5158 0.197725 11.901 0.245883 12.2261 0.30608V2.56349H9.98676C8.84301 2.56349 7.95209 2.84642 7.314 3.41227C6.6759 3.97813 6.35686 4.85701 6.35686 6.04892V11.1597C6.35686 12.5202 6.06189 13.5736 5.47195 14.3201C5.03263 14.8759 4.39301 15.2749 3.55308 15.517C4.39301 15.7524 5.03263 16.148 5.47195 16.7039C6.06189 17.4503 6.35686 18.5098 6.35686 19.8823V25.9502C6.35686 27.1301 6.6759 28.0029 7.314 28.5688C7.95209 29.1467 8.84301 29.4356 9.98676 29.4356H12.2261V31.6931C11.901 31.7412 11.5158 31.7834 11.0703 31.8195C10.6369 31.8676 10.1794 31.8917 9.69782 31.8917ZM22.6746 23.1277H26.0902L21.7258 16.676L26.1472 10.414H22.7316L19.3539 15.4615H16.3439V10.414H13.4975V23.1277H16.3439V18.232H19.3918L22.6746 23.1277Z" fill="#425C67"/>
</g>
<defs>
<clipPath id="clip0_1094_15637">
<rect width="39.7108" height="32" fill="white"/>
</clipPath>
</defs>
</svg>
