<svg width="124" height="50" viewBox="0 0 124 50" fill="none" xmlns="http://www.w3.org/2000/svg">
<path d="M80.0965 33.462C79.8248 33.462 79.4702 33.1155 79.0367 32.4199C78.6033 31.7242 77.9987 30.568 77.2066 29.0449C76.5354 27.7252 75.9761 26.6626 75.5286 25.8574C75.1446 25.1575 74.7091 24.4872 74.2256 23.852L71.8166 26.6549V31.5585L74.1482 31.8601V33.481H65.7242V31.8329L67.8642 31.5612V15.1278L65.7514 14.7704V13.0666H73.9036V14.7704L71.8194 15.1278V24.0748L78.9471 15.1278L76.7433 14.7704V13.0666H84.0585V14.7704L81.8098 15.1278L76.5503 21.106C77.317 21.8553 77.9912 22.6937 78.5585 23.6033C79.2623 24.664 80.1228 26.0535 81.14 27.7718C81.8805 29.0354 82.4376 29.9566 82.818 30.5503C83.0321 30.9385 83.3284 31.2751 83.6862 31.5367L84.962 31.837V33.4579L80.0965 33.462ZM87.6047 20.8098L85.8723 20.3139V18.4199L90.3669 17.8411H90.4498L91.1291 18.3927V20.1196C91.8518 19.4577 92.6851 18.9279 93.5911 18.5544C94.5564 18.127 95.5993 17.9032 96.655 17.8968C97.5569 17.8464 98.4532 18.0674 99.2283 18.5313C99.9047 18.9812 100.393 19.6632 100.601 20.4484C100.906 21.6131 101.044 22.8155 101.008 24.0191V31.5965L102.663 31.8139V33.462H95.6441V31.8139L97.1074 31.5965V24.0191C97.1273 23.2735 97.0645 22.528 96.9199 21.7962C96.8449 21.3269 96.5924 20.9042 96.2147 20.6155C95.803 20.3364 95.3105 20.2012 94.8139 20.231C93.7804 20.231 92.6767 20.6785 91.5028 21.5734V31.5585L93.1332 31.8044V33.4539H86.0408V31.8044L87.6128 31.5585L87.6047 20.8098ZM107.761 15.7147C107.478 15.7313 107.195 15.6887 106.929 15.5897C106.663 15.4904 106.42 15.3378 106.215 15.1414C106.025 14.9467 105.877 14.7156 105.779 14.462C105.68 14.2071 105.634 13.9349 105.643 13.6617C105.622 13.0205 105.857 12.3974 106.296 11.9294C106.521 11.7005 106.791 11.5217 107.09 11.4046C107.388 11.2875 107.708 11.2348 108.029 11.2501C108.331 11.2283 108.635 11.2704 108.92 11.3737C109.205 11.4784 109.466 11.6413 109.685 11.852C109.873 12.0427 110.02 12.2697 110.117 12.5191C110.214 12.7696 110.26 13.0371 110.253 13.3058C110.269 13.6294 110.22 13.9529 110.107 14.2568C109.997 14.5602 109.825 14.8376 109.603 15.0721C109.36 15.3016 109.072 15.4786 108.758 15.5917C108.443 15.7049 108.108 15.7518 107.775 15.7297L107.761 15.7147ZM106.325 20.8098L104.4 20.2867V18.4335L109.361 17.8411H109.416L110.175 18.3927V31.5965L112.004 31.8139V33.462H104.428V31.8139L106.33 31.568L106.325 20.8098ZM118.507 33.7079C117.366 33.7079 116.525 33.4425 115.986 32.9117C115.448 32.3809 115.176 31.5395 115.171 30.3873V20.3139H113.405V18.8859C113.541 18.8302 113.813 18.7378 114.19 18.6142C114.485 18.5125 114.774 18.3932 115.054 18.2568C115.425 17.9264 115.697 17.5006 115.841 17.0259C116.005 16.64 116.31 15.6889 116.756 14.1726H118.929L119.039 18.2052H123.184V20.3221H119.068V28.034C119.055 28.7596 119.083 29.4854 119.151 30.2079C119.154 30.3612 119.186 30.5125 119.246 30.6536C119.306 30.7942 119.393 30.9216 119.503 31.0286C119.801 31.163 120.128 31.2201 120.454 31.1944C120.927 31.194 121.399 31.1485 121.863 31.0585C122.283 30.9741 122.693 30.8452 123.086 30.674L123.595 32.2011C122.918 32.6691 122.167 33.0213 121.374 33.2433C120.448 33.5477 119.481 33.7046 118.507 33.7079Z" fill="#202020"/>
<path d="M23.9307 35.9552H10.303C8.94642 35.9489 7.60452 35.6739 6.35479 35.1462C5.10506 34.6185 3.97224 33.8484 3.02174 32.8805C1.08534 30.9114 0.00012771 28.2603 2.22842e-07 25.4987V10.462C-0.000568185 7.69736 1.08627 5.04345 3.02582 3.07337C3.97794 2.10394 5.113 1.33311 6.3652 0.805544C7.61741 0.277981 8.96186 0.00417606 10.3207 0H23.9443C25.3028 0.00325923 26.6472 0.275977 27.8996 0.80236C29.152 1.32874 30.2876 2.09833 31.2405 3.06658C33.1827 5.0379 34.2707 7.69462 34.269 10.462V11.5027H28.4728V10.462C28.4767 9.24693 28.0018 8.07928 27.1508 7.21196C26.7323 6.78761 26.2337 6.45048 25.684 6.22006C25.1343 5.98964 24.5444 5.87051 23.9484 5.86957H10.303C9.70694 5.87036 9.11697 5.98942 8.56725 6.21985C8.01754 6.45028 7.51901 6.78749 7.10055 7.21196C6.24962 8.07928 5.77465 9.24693 5.77854 10.462V25.5041C5.77752 26.7174 6.25385 27.8823 7.10462 28.7473C7.52242 29.1715 8.02025 29.5086 8.56927 29.739C9.11829 29.9695 9.70758 30.0887 10.303 30.0897H23.9307C24.5268 30.0891 25.1169 29.9702 25.6666 29.7397C26.2163 29.5093 26.7148 29.172 27.1332 28.7473C27.9839 27.8823 28.4603 26.7174 28.4593 25.5041V22.2622H34.2419V25.5041C34.2387 28.2641 33.1527 30.9127 31.2174 32.8805C30.2661 33.8488 29.1324 34.6191 27.8817 35.1468C26.631 35.6746 25.2882 35.9493 23.9307 35.9552Z" fill="#FF6C37"/>
<path d="M38.5546 50H24.9282C23.5699 49.9972 22.2256 49.725 20.9731 49.1991C19.7207 48.6732 18.5851 47.904 17.632 46.9361C15.6927 44.9659 14.6059 42.3121 14.6062 39.5475V38.9198H20.3861V39.5475C20.3862 40.7614 20.864 41.9264 21.7163 42.7908C22.1345 43.2157 22.6329 43.5532 23.1827 43.7839C23.7324 44.0146 24.3225 44.1338 24.9187 44.1345H38.541C39.1372 44.1339 39.7273 44.0148 40.2771 43.7841C40.8269 43.5534 41.3253 43.2158 41.7434 42.7908C42.5956 41.9266 43.0726 40.7612 43.0709 39.5475V24.4973C43.0726 23.2836 42.5956 22.1182 41.7434 21.2541C41.3253 20.829 40.8269 20.4914 40.2771 20.2607C39.7273 20.03 39.1372 19.9109 38.541 19.9103H24.9282C24.332 19.9111 23.7419 20.0302 23.1922 20.2609C22.6424 20.4916 22.144 20.8292 21.7258 21.2541C20.875 22.119 20.3987 23.284 20.3997 24.4973V26.7894H14.6062V24.4973C14.6059 21.7327 15.6927 19.0789 17.632 17.1087C18.5851 16.1408 19.7207 15.3716 20.9731 14.8457C22.2256 14.3198 23.5699 14.0476 24.9282 14.0448H38.5546C39.9128 14.0482 41.2568 14.3208 42.509 14.8469C43.7611 15.3731 44.8965 16.1423 45.8494 17.11C47.7885 19.08 48.8757 21.7331 48.8766 24.4973V39.5475C48.8757 42.3117 47.7885 44.9648 45.8494 46.9348C44.8965 47.9026 43.7611 48.6718 42.509 49.1979C41.2568 49.724 39.9128 49.9967 38.5546 50Z" fill="#202020"/>
</svg>
