<svg width="32" height="32" viewBox="0 0 32 32" fill="none" xmlns="http://www.w3.org/2000/svg">
<path fill-rule="evenodd" clip-rule="evenodd" d="M12.9793 24.8762V22.917C12.9793 22.7499 12.8998 22.5936 12.7664 22.4933L12.7063 22.4142L12.6337 22.3507C12.409 22.2231 12.3605 22.1958 12.338 22.1847L8.81397 20.1795V12.0003L12.1866 10.0838C12.1866 10.0838 12.4229 9.94884 12.4351 9.94146C12.4426 9.93678 12.4473 9.93384 12.452 9.93086C12.4599 9.92585 12.4678 9.92076 12.4889 9.90708L15.9993 7.91183L19.3733 9.83365C19.5638 9.94228 19.6324 9.9808 19.6629 9.99564L23.1852 12.0001V14.6697C23.1852 14.8601 23.2884 15.036 23.4559 15.1313L25.1858 16.1154C25.5471 16.3209 25.999 16.0643 25.999 15.6537L25.9981 11.2107C26.0002 10.9708 25.9366 10.7302 25.8147 10.5186C25.6913 10.3049 25.513 10.1281 25.2952 10.004L25.0729 9.87887L20.997 7.55968L20.7748 7.43631L16.7653 5.15605C16.5848 5.02962 16.3273 4.94538 16.0662 4.93291C15.7972 4.92058 15.5319 4.98383 15.2974 5.11679L15.0726 5.24785L11.2193 7.43713C11.1198 7.49294 11.0869 7.51136 11.0541 7.52983C11.0379 7.53892 11.0218 7.54803 10.9977 7.56163L10.778 7.68818L6.75504 9.97623C6.54869 10.0744 6.35016 10.2539 6.21305 10.4724C6.07445 10.6901 6 10.9434 6 11.2028V16.0899L6.00106 20.9692C5.99867 21.2083 6.06224 21.449 6.18441 21.6611C6.30793 21.8749 6.48667 22.052 6.70455 22.1757L6.92555 22.3005C9.70788 23.8837 10.9884 24.6123 11.0042 24.6211L11.2257 24.7441L12.1518 25.3292C12.5186 25.5471 12.9793 25.2912 12.9793 24.8762ZM23.9984 17.4196C23.6371 17.2148 23.186 17.4714 23.186 17.8816V18.3797L14.2474 13.2966L13.947 13.1244C13.6749 12.9698 13.339 12.986 13.0856 13.1634L12.8478 13.2955L11.5287 14.0427L10.9968 14.3433C10.61 14.5634 10.489 15.0452 10.7156 15.4299L11.0181 15.9432L11.3233 16.4622C11.5474 16.8425 12.038 16.9612 12.4276 16.7369C12.9463 16.4423 12.9701 16.4287 12.9927 16.4133C12.9941 16.4123 12.9956 16.4113 12.9972 16.4102L13.5449 16.1003L14.6282 16.7164L14.6272 26.2847C14.6272 26.7176 14.9837 27.0687 15.4235 27.0687C15.6253 27.0687 15.8182 26.9937 15.9654 26.8594L17.151 25.917C17.3581 25.7527 17.467 25.4987 17.4445 25.2391L17.4461 18.3198L23.8744 21.9869C24.2751 22.214 24.7241 22.061 25.03 21.6763L25.8455 20.8581C25.9445 20.7582 25.9998 20.6246 25.9998 20.4855V18.8621C25.9998 18.6715 25.8963 18.4953 25.7284 18.4001L23.9984 17.4196Z" fill="#0EBAC5" style="fill:#0EBAC5;fill:color(display-p3 0.0549 0.7294 0.7725);fill-opacity:1;"/>
</svg>
