<svg width="32" height="32" viewBox="0 0 32 32" fill="none" xmlns="http://www.w3.org/2000/svg">
    <rect width="32" height="32" rx="4" fill="url(#paint0_linear_2387_32457)"/>
    <path d="M26 15.0174V16.9696C24.8052 16.9699 23.6222 17.2038 22.5186 17.6579C21.415 18.1119 20.4124 18.7773 19.5682 19.616C18.7239 20.4546 18.0546 21.4501 17.5985 22.5455C17.1423 23.641 16.9082 24.8148 16.9097 26H15.0903C15.0897 23.6086 14.1318 21.3154 12.4272 19.6244C10.7225 17.9334 8.41072 16.9832 6 16.9826V15.0304C7.19478 15.0301 8.37779 14.7962 9.48141 14.3421C10.585 13.8881 11.5876 13.2227 12.4318 12.384C13.2761 11.5453 13.9454 10.5499 14.4015 9.45445C14.8577 8.35904 15.0917 7.18519 15.0903 6H16.9097C16.9103 8.39137 17.8682 10.6846 19.5728 12.3756C21.2775 14.0666 23.5893 15.0168 26 15.0174Z" fill="url(#paint1_linear_2387_32457)"/>
    <defs>
        <linearGradient id="paint0_linear_2387_32457" x1="32" y1="-1.03471e-05" x2="-1.06652" y2="1.14287" gradientUnits="userSpaceOnUse">
            <stop stop-color="#C5ECFE"/>
            <stop offset="1" stop-color="#E5D6E3"/>
        </linearGradient>
        <linearGradient id="paint1_linear_2387_32457" x1="7.21875" y1="5.14894" x2="28.9976" y2="12.7207" gradientUnits="userSpaceOnUse">
            <stop stop-color="#202630"/>
            <stop offset="1" stop-color="#0E1414"/>
        </linearGradient>
    </defs>
</svg>
