<svg width="32" height="32" viewBox="0 0 129 129" fill="none" xmlns="http://www.w3.org/2000/svg">
  <path d="M8 0.410269C8 0.810269 16.9333 18.6769 27.8667 40.1436L47.8667 79.0769L23.8667 103.344C10.8 116.677 0 127.877 0 128.41C0 128.81 9.46667 128.944 20.9333 128.81L41.7333 128.41L43.6 122.944C45.4667 117.477 45.4667 117.477 55.7333 115.344L66 113.077L102.667 76.4103V43.8769L107.067 43.2103C109.333 42.8103 115.2 42.0103 120 41.4769L128.533 40.4103L113.467 31.3436L98.4 22.4103L89.0667 31.3436C84 36.4103 79.4667 40.5436 78.9333 40.8103C78.4 40.9436 76.5333 38.6769 74.6667 35.6103C71.6 30.6769 68.8 29.0769 40.1333 14.9436C7.86666 -0.789724 8 -0.656397 8 0.410269ZM42.9333 20.2769L68.6667 32.6769L82.4 52.8103C89.8667 64.0103 96 73.4769 96 74.1436C96 74.6769 86.8 76.2769 75.7333 77.6103C64.5333 78.9436 54.8 80.2769 54 80.5436C52.9333 80.9436 16 11.2103 16 8.54361C16 7.21028 15.8667 7.21028 42.9333 20.2769ZM99.7333 60.5436L99.3333 72.0103L90.1333 58.4103L80.9333 44.9436L99.3333 26.2769L99.7333 37.7436C99.8667 44.0103 99.8667 54.2769 99.7333 60.5436ZM117.067 38.4103C117.333 39.2103 115.067 39.7436 111.467 39.7436C108.133 39.7436 104.933 39.8769 104.4 40.0103C103.733 40.2769 103.2 37.8769 102.933 34.6769L102.533 28.9436L109.6 32.9436C113.467 35.2103 116.8 37.6103 117.067 38.4103ZM82 93.0769C74 101.21 67.0667 107.744 66.6667 107.744C65.7333 107.744 54.6667 85.4769 54.6667 83.7436C54.6667 82.9436 56.9333 82.4103 59.7333 82.2769C62.4 82.2769 71.6 81.2103 80 79.8769C88.4 78.6769 95.6 77.8769 95.8667 78.0103C96.2667 78.2769 90 85.0769 82 93.0769ZM45.0667 104.677L39.3333 124.81L24 125.344C15.6 125.61 8.4 125.61 8.13333 125.477C7.86667 125.21 16.8 115.61 28.1333 104.01C39.4667 92.4103 49.0667 83.2103 49.7333 83.7436C50.2667 84.1436 48.1333 93.6103 45.0667 104.677ZM59.0667 100.41L64 110.277L58.9333 111.61C48.8 114.144 46.6667 114.41 46.6667 113.477C46.6667 110.944 52.5333 90.4103 53.2 90.4103C53.7333 90.4103 56.2667 94.9436 59.0667 100.41Z" 
        fill="#000000" />
</svg>