<svg width="24" height="24" viewBox="0 0 24 24" fill="none" xmlns="http://www.w3.org/2000/svg">
<path fill-rule="evenodd" clip-rule="evenodd" d="M21.1372 17.2143C19.3664 20.2903 16.0767 22.3571 12.311 22.3571C8.54529 22.3571 5.2556 20.2903 3.48476 17.2143H1.65045C3.56381 21.2299 7.61841 24 12.311 24C17.0036 24 21.0582 21.2299 22.9716 17.2143H21.1372ZM3.44401 6.85714C5.20483 3.7417 8.51622 1.64286 12.311 1.64286C16.1058 1.64286 19.4172 3.7417 21.178 6.85714H23.0053C21.1062 2.80295 17.0314 0 12.311 0C7.59064 0 3.51584 2.80295 1.6167 6.85714H3.44401Z" fill="#009BFF"/>
<path d="M2.99987 8.59848C3.6137 8.59848 4.14503 8.7046 4.59385 8.91683C5.04928 9.12906 5.3991 9.43029 5.64331 9.82051C5.88753 10.2107 6.00963 10.6729 6.00963 11.2069C6.00963 11.734 5.88753 12.1961 5.64331 12.5932C5.3991 12.9834 5.04928 13.2847 4.59385 13.4969C4.14503 13.7023 3.6137 13.805 2.99987 13.805H1.60389V15.7869H0V8.59848H2.99987ZM2.91076 12.4494C3.39259 12.4494 3.75891 12.3433 4.00972 12.1311C4.26054 11.912 4.38594 11.6039 4.38594 11.2069C4.38594 10.8029 4.26054 10.4949 4.00972 10.2826C3.75891 10.0636 3.39259 9.95401 2.91076 9.95401H1.60389V12.4494H2.91076Z" fill="#333333"/>
<path d="M11.8307 13.045C11.8307 13.0656 11.8208 13.2093 11.801 13.4763H7.77146C7.84406 13.8187 8.01567 14.0891 8.28629 14.2876C8.5569 14.4862 8.89352 14.5854 9.29614 14.5854C9.57336 14.5854 9.81757 14.5443 10.0288 14.4622C10.2466 14.3732 10.4479 14.2363 10.6327 14.0514L11.4545 14.9756C10.9528 15.5713 10.2202 15.8691 9.25654 15.8691C8.65591 15.8691 8.12458 15.7493 7.66255 15.5096C7.20053 15.2632 6.84411 14.9243 6.59329 14.493C6.34248 14.0617 6.21707 13.5722 6.21707 13.0245C6.21707 12.4837 6.33918 11.9976 6.58339 11.5663C6.83421 11.1281 7.17412 10.7892 7.60315 10.5496C8.03877 10.3032 8.5239 10.1799 9.05853 10.1799C9.57996 10.1799 10.0519 10.2963 10.4743 10.5291C10.8967 10.7619 11.2267 11.0973 11.4644 11.5355C11.7086 11.9668 11.8307 12.47 11.8307 13.045ZM9.06843 11.3917C8.71861 11.3917 8.42489 11.4944 8.18728 11.6998C7.94967 11.9052 7.80446 12.1859 7.75166 12.5418H10.3753C10.3225 12.1927 10.1773 11.9154 9.93968 11.71C9.70207 11.4978 9.41165 11.3917 9.06843 11.3917Z" fill="#333333"/>
<path d="M14.6643 10.1799C15.4894 10.1799 16.123 10.3853 16.5652 10.7961C17.0075 11.2 17.2286 11.8127 17.2286 12.6343V15.7869H15.7831V15.0989C15.4927 15.6123 14.9514 15.8691 14.1594 15.8691C13.7502 15.8691 13.3938 15.7972 13.0901 15.6534C12.7931 15.5096 12.5654 15.3111 12.407 15.0578C12.2486 14.8045 12.1694 14.517 12.1694 14.1952C12.1694 13.6817 12.3542 13.2778 12.7238 12.9834C13.1 12.689 13.6776 12.5418 14.4564 12.5418H15.6841C15.6841 12.1927 15.5818 11.9257 15.3772 11.7409C15.1726 11.5492 14.8656 11.4533 14.4564 11.4533C14.1726 11.4533 13.8921 11.5012 13.6149 11.5971C13.3443 11.6861 13.1132 11.8093 12.9218 11.9668L12.3674 10.8474C12.6578 10.6352 13.0043 10.4709 13.407 10.3545C13.8162 10.2381 14.2353 10.1799 14.6643 10.1799ZM14.5455 14.7908C14.8095 14.7908 15.0438 14.7292 15.2485 14.606C15.4531 14.4759 15.5983 14.2876 15.6841 14.0412V13.4763H14.6247C13.9911 13.4763 13.6743 13.692 13.6743 14.1233C13.6743 14.3287 13.7502 14.493 13.902 14.6162C14.0604 14.7326 14.2749 14.7908 14.5455 14.7908Z" fill="#333333"/>
<path d="M19.9036 10.9912C20.0884 10.7242 20.3359 10.5222 20.6461 10.3853C20.9629 10.2484 21.326 10.1799 21.7352 10.1799V11.6587C21.5636 11.645 21.4481 11.6382 21.3887 11.6382C20.9464 11.6382 20.5999 11.7682 20.3491 12.0284C20.0983 12.2817 19.9729 12.6651 19.9729 13.1785V15.7869H18.4284V10.2621H19.9036V10.9912Z" fill="#333333"/>
<path d="M22.4555 8.16718H24V15.7869H22.4555V8.16718Z" fill="#333333"/>
</svg>
