<?xml version="1.0" encoding="UTF-8"?> <svg xmlns="http://www.w3.org/2000/svg" id="Layer_1" viewBox="0 0 250 250"><defs><style>.cls-1{fill:#004049;}</style></defs><path class="cls-1" d="m166.44,55.01h-7.02v-25.71h7.02L126.79.58c-1.07-.77-2.51-.77-3.58,0l-39.65,28.72h7.02v25.71h-7.02v7.4h82.88v-7.4Zm-10.72,0h-27.02v-3.95h27.02v3.95Zm0-7.65h-27.02v-18.06h27.02v18.06Zm-34.42-18.06v18.06h-27.02v-18.06h27.02Zm-27.02,21.76h27.02v3.95h-27.02v-3.95Z"></path><polygon class="cls-1" points="167.38 234.76 154.94 66.14 95.06 66.14 82.62 234.76 167.38 234.76"></polygon><path class="cls-1" d="m82.35,238.46l-.52,7.05c-.18,2.43,1.75,4.49,4.17,4.49h78c2.43,0,4.35-2.06,4.17-4.49l-.52-7.05h-85.31Z"></path></svg> 