<?xml version="1.0" encoding="UTF-8" standalone="no"?>
<!DOCTYPE svg PUBLIC "-//W3C//DTD SVG 1.1//EN" "http://www.w3.org/Graphics/SVG/1.1/DTD/svg11.dtd">
<svg width="100%" height="100%" viewBox="0 0 567 567" version="1.1" xmlns="http://www.w3.org/2000/svg" xmlns:xlink="http://www.w3.org/1999/xlink" xml:space="preserve" xmlns:serif="http://www.serif.com/" style="fill-rule:evenodd;clip-rule:evenodd;stroke-linejoin:round;stroke-miterlimit:2;">
    <g id="Layer-1" serif:id="Layer 1">
        <path id="path1" d="M479.85,497.847C458.836,483.989 435.725,472.624 413.858,460.142C362.287,430.706 310.275,401.939 259.077,371.87C239.566,360.41 219.855,349.28 200.284,337.922C194.894,334.793 189.499,331.668 184.086,328.578C182.067,327.425 178.792,326.263 177.504,324.235C175.491,321.065 176.887,313.745 176.887,310.071L176.887,225.481C176.887,219.616 175.027,209.983 177.249,204.547C178.209,202.2 181.445,201.021 183.487,199.805C189.24,196.378 195.075,193.069 200.884,189.739C220.115,178.713 239.258,167.535 258.477,156.49L274.075,147.491C276.118,146.317 278.827,144.07 281.274,144.07C283.721,144.07 286.431,146.317 288.473,147.491L304.072,156.49C323.491,167.651 342.845,178.925 362.264,190.086L379.062,199.775C381.392,201.105 384.852,202.428 385.899,205.11C388.071,210.67 386.261,220.121 386.261,226.081L386.261,310.071C386.261,313.75 387.553,320.501 385.645,323.741C382.318,329.388 369.665,333.611 364.064,336.947C344.865,348.381 324.522,358.361 305.871,370.663C310.456,375.298 318.175,378.2 323.869,381.378C336.5,388.429 349.077,395.586 361.664,402.714C378.65,412.331 395.725,421.8 412.658,431.508C418.121,434.641 427.934,442.912 434.255,442.991C440.473,443.069 449.924,434.807 455.253,431.765C474.897,420.552 501.106,410.447 510.174,388.061C514.067,378.452 513.445,368.213 513.445,358.065L513.445,205.084C513.445,186.484 516.002,165.724 512.119,147.491C507.557,126.071 491.345,117.195 473.85,107.041C453.88,95.451 433.696,84.195 413.858,72.38C386.497,56.085 358.725,40.383 331.068,24.597C316.48,16.27 302.076,5.276 284.874,3.611C262.885,1.483 242.876,18.008 224.881,28.451C186.138,50.937 147.24,73.157 108.496,95.643C90.806,105.91 66.844,114.868 55.974,133.093C47.949,146.549 49.103,161.234 49.103,176.287L49.103,341.867C49.103,360.279 46.963,379.233 56.475,395.86C64.358,409.638 80.264,416.101 93.498,423.625C119.739,438.544 145.846,453.7 172.088,468.619C211.344,490.938 250.499,513.437 289.673,535.895C307.457,546.091 327.552,562.313 348.466,564.337C365.109,565.948 377.256,557.876 391.061,549.951C409.911,539.129 428.778,528.287 447.454,517.165C457.676,511.077 471.173,505.972 479.85,497.847Z" style="fill:rgb(129,53,137);fill-rule:nonzero;"/>
    </g>
</svg>