<svg width="209" height="211" viewBox="0 0 209 211" fill="none" xmlns="http://www.w3.org/2000/svg">
<path d="M205.292 110.381C199.756 98.0697 186.525 90.8236 173.158 93.708L148.113 51.9896C157.362 43.3364 160.197 29.1958 154.864 17.3064C150.071 6.82408 139.742 0 128.468 0C124.215 0 120.165 0.914567 116.249 2.81405C103.828 8.72356 97.2121 22.7235 100.047 36.2309L50.3617 62.8237C42.0583 53.6077 28.0842 50.5826 16.8779 55.9997C9.78956 59.3765 4.45645 65.4267 1.75614 72.9543C-0.876666 80.4116 -0.539127 88.502 2.70124 95.7481C8.50691 108.622 22.9536 115.869 36.5226 111.999L61.568 160.12C53.197 168.914 50.8343 182.28 55.9649 193.677C60.6904 204.16 71.0866 210.984 82.2929 210.984C86.5459 210.984 90.5963 210.069 94.5118 208.17C106.461 202.471 113.144 189.245 110.916 176.019L156.686 142.11C164.787 152.17 179.302 155.758 191.183 150.13C198.271 146.753 203.672 140.703 206.305 133.105C208.937 125.647 208.532 117.557 205.292 110.381ZM37.8728 86.3914C36.9952 88.8537 35.3075 90.7532 33.0122 91.8788C28.3542 94.0597 22.616 91.8788 20.5233 87.1653C19.5107 84.8437 19.3757 82.2407 20.2533 79.8488C21.1309 77.3865 22.8186 75.487 25.1138 74.3613C26.3965 73.7282 27.7466 73.4468 29.0968 73.4468C32.7422 73.4468 36.1176 75.6277 37.6703 79.0045C38.6154 81.3965 38.7504 83.9995 37.8728 86.3914ZM150.206 127.336L104.233 161.386C102.478 159.275 100.385 157.446 98.0897 155.899L127.388 59.7986C129.683 59.869 131.979 59.6579 134.274 59.1655L159.319 100.813C152.231 107.567 148.788 117.487 150.206 127.336ZM57.45 76.894L107.203 50.3012C108.891 52.1303 110.714 53.7484 112.806 55.0851L83.508 151.185C80.6727 151.044 77.7699 151.396 74.9345 152.17L49.8892 104.05C56.6399 96.8738 59.5428 86.6728 57.45 76.894ZM137.312 33.2058C136.434 35.5978 134.746 37.5676 132.451 38.6229C127.793 40.8038 122.055 38.6229 119.962 33.9797C118.95 31.6581 118.815 29.0551 119.692 26.6631C120.57 24.2009 122.257 22.3014 124.553 21.1757C129.211 18.9245 134.949 21.1757 137.042 25.8893C138.054 28.2109 138.122 30.8139 137.312 33.2058ZM73.4494 177.778C74.327 175.315 76.0147 173.416 78.3099 172.29C79.5926 171.657 80.8752 171.376 82.2929 171.376C85.9383 171.376 89.3137 173.557 90.8664 176.934C91.879 179.255 92.014 181.858 91.1364 184.25C90.2588 186.642 88.5711 188.612 86.2758 189.667C81.5503 191.918 75.8797 189.667 73.7869 184.954C72.7068 182.773 72.6393 180.17 73.4494 177.778ZM187.808 126.21C186.93 128.673 185.242 130.572 182.947 131.698C178.289 133.949 172.551 131.698 170.458 126.984C169.445 124.663 169.31 122.13 170.188 119.738C171.066 117.276 172.753 115.376 175.049 114.251C176.331 113.617 177.614 113.336 179.032 113.336C182.677 113.336 186.052 115.517 187.605 118.894C188.55 121.215 188.618 123.818 187.808 126.21Z" fill="#F94D4C"/>
</svg>
