<svg width="593" height="593" viewBox="0 0 593 593" fill="none" xmlns="http://www.w3.org/2000/svg">
<g clip-path="url(#clip0_2838_351)">
<path d="M499.699 512.421C380.448 624.644 192.802 618.948 80.5785 499.698C-31.645 380.447 -25.9487 192.801 93.3015 80.5775C212.552 -31.6459 400.198 -25.9497 512.421 93.3005C624.645 212.551 618.949 400.197 499.699 512.421Z" fill="#000811"/>
<path d="M5.29802 240.582C96.3812 228.842 191.62 259.448 259.37 331.44C327.118 403.43 351.891 500.347 334.65 590.548C243.567 602.289 148.328 571.683 80.5785 499.691C12.8303 427.7 -11.943 330.784 5.29802 240.582Z" fill="#DDB800"/>
<path d="M369.734 135.721L380.39 174.495C384.639 189.958 396.744 202.025 412.22 206.226L451.028 216.76L412.254 227.416C396.79 231.665 384.724 243.77 380.522 259.247L369.988 298.054L359.332 259.28C355.083 243.816 342.978 231.75 327.502 227.549L288.694 217.014L327.469 206.359C342.932 202.109 354.999 190.005 359.2 174.528L369.734 135.721Z" fill="white"/>
</g>
<defs>
<clipPath id="clip0_2838_351">
<rect width="593" height="593" fill="white"/>
</clipPath>
</defs>
</svg>
